PathFileType	4	(X/Y/Z)	Patient4_TMGait_0pt7_01_left_50.trc.trc
DataRate	CameraRate	NumFrames	NumMarkers	Units	OrigDataRate	OrigDataStartFrame	OrigNumFrames
89.171974522293	89.171974522293	6	33	mm	89.171974522293	71	       141
Frame#	Time	Sacral			L.Shoulder			Chest			R.Shoulder			Neck			R.ASIS			L.ASIS			R.Thigh.Superior			R.Thigh.Lateral			R.Thigh.Inferior			R.Patella			L.Thigh.Superior			L.Thigh.Lateral			L.Thigh.Inferior			L.Patella			L.Shank.Superior			L.Shank.Lateral			L.Shank.Inferior			R.Shank.Superior			R.Shank.Lateral			R.Shank.Inferior			R.Heel			R.Midfoot.Superior			R.Midfoot.Lateral			R.Toe			L.Heel			L.Midfoot.Lateral			L.Midfoot.Superior			L.Toe			L.Elbow			L.Wrist			R.Elbow			R.Wrist			
		X1	Y1	Z1	X2	Y2	Z2	X3	Y3	Z3	X4	Y4	Z4	X5	Y5	Z5	X6	Y6	Z6	X7	Y7	Z7	X8	Y8	Z8	X9	Y9	Z9	X10	Y10	Z10	X11	Y11	Z11	X12	Y12	Z12	X13	Y13	Z13	X14	Y14	Z14	X15	Y15	Z15	X16	Y16	Z16	X17	Y17	Z17	X18	Y18	Z18	X19	Y19	Z19	X20	Y20	Z20	X21	Y21	Z21	X22	Y22	Z22	X23	Y23	Z23	X24	Y24	Z24	X25	Y25	Z25	X26	Y26	Z26	X27	Y27	Z27	X28	Y28	Z28	X29	Y29	Z29	X30	Y30	Z30	X31	Y31	Z31	X32	Y32	Z32	X33	Y33	Z33	

71	58.905000000000	870.253791210038	1012.142374746189	455.652038525464	1098.727120587570	1429.556446115315	282.569517829669	1183.331883343606	1347.958611149989	449.337761360313	1094.345618581587	1433.590571514206	615.008663403339	1094.317761153402	1487.587913248282	435.262702095815	1087.868312008496	940.637135063277	586.414496219065	1087.730816964112	953.561072939058	310.757593923824	1164.075700173096	773.635584318783	559.502899550117	1122.964003737938	652.645209520877	635.389537934231	1211.437165270618	615.820769554082	554.993677150152	1247.608132840430	532.767101588109	575.864467586277	1094.347849959843	732.551369023104	337.346368701489	981.874278848530	637.905527067635	271.222757742091	1044.472603361383	544.016414523307	333.389246645982	1030.777498937199	477.596853975446	341.497847900380	999.313028926680	411.038452799710	331.935413124951	897.676279286374	307.025598408537	281.714254564585	938.646794310461	189.924391098799	349.683574594052	1229.041245322153	443.387182466000	586.249790090391	1172.117583471078	330.936235635986	649.262616560844	1240.701127640482	243.193812372231	598.497103144350	1145.433558006111	56.952659471487	569.699114504311	1309.653163023362	130.208709508778	610.835057037001	1231.526151749666	51.270437380729	640.055670611221	1434.102832113082	91.467912949630	630.923421907780	801.233825362450	39.517245482087	394.996349021377	870.540038221591	35.966049104154	310.679943681148	955.586233172366	95.853662467624	334.014447289689	1082.099080913493	41.505878605805	297.624187605949	1130.346648603507	1101.552694663333	133.197361479153	1378.104018483344	1092.516498244221	187.838867772476	958.386422802120	1114.090690853569	730.326660436750	936.939063033216	852.228465589910	746.200632945079	
72	58.916214285714	872.460049889371	1009.947383175684	458.182304788271	1097.989504829716	1428.424342641857	284.886301634317	1183.612580615873	1347.028158433091	451.206401703979	1094.767150852135	1432.155140850828	617.169162671953	1094.055372514867	1486.197883753640	437.489614787059	1090.349336565954	938.264838819146	588.077128752969	1089.428641957841	952.105213896842	312.524513291531	1164.272761214300	768.719126023109	561.683725155825	1120.044721130524	648.016613946194	636.550337950330	1208.606391678888	610.744916472421	556.539982367784	1242.990895721928	528.559042471665	576.436319784850	1094.150297621880	730.530463303423	338.294910945799	980.212147477219	637.106064111478	272.373332722613	1041.799473361606	542.477471877151	334.212405943285	1027.527078942910	475.867800318515	342.197882559391	995.168151463784	409.648442170438	332.613429097390	892.142513514041	306.900285559429	282.294952975425	931.707589145306	189.117703852597	349.923385320828	1226.314358700771	439.122967438560	586.548958114324	1170.634102395023	325.181522590544	647.856282911104	1241.683521053736	239.123216218615	597.249417929242	1149.928690622702	52.156345068509	566.342866833135	1313.018373247195	126.717853786225	608.505582947855	1235.580070752799	47.257714573955	637.186619268330	1437.825218211453	89.316781945065	629.332592518548	793.238134644529	39.180534399484	394.958471474372	862.604101291545	35.692164683539	310.681755942311	947.648538449069	95.722611455971	334.051902250308	1074.253336931198	41.402516240317	297.564053334940	1131.417600378373	1101.586568153283	133.950366697738	1378.309410524299	1103.070895369395	190.764552910325	953.309983789566	1115.896618443239	732.429567972633	925.981475469027	854.853582354621	747.036078341058	
73	58.927428571429	874.737428737284	1007.627040328663	460.943045994742	1097.128388534309	1427.143561885531	287.319477890757	1183.877312665425	1346.093480431608	453.212290398597	1095.134111449091	1430.683867399495	619.478310860726	1093.701063799742	1484.739632747798	439.835637361913	1093.000159794362	935.787814713354	589.904816228258	1091.285317316901	950.587231367345	314.506780590206	1164.996682717355	764.074745454245	564.080339465325	1117.546902613740	643.490110257283	637.460400744917	1206.526355097410	606.080228710403	558.131423878307	1238.893805435004	524.305172706682	576.800078877623	1094.343546700105	728.466929139092	339.351692520634	979.056030016250	636.128660591148	273.707924232488	1039.866136000515	540.818127415248	335.133621370940	1025.106793385253	473.848106608652	342.953331021931	991.622000188336	408.021717739000	333.376650481946	886.996589217697	306.774671912564	282.981114648918	924.934204208865	188.227031578276	350.181803189203	1223.617190698292	434.710373677378	586.538621068595	1168.420227633668	319.731851662846	646.119382868625	1241.113767345726	234.915539359613	595.633481325809	1151.200346098469	48.437571758998	562.857717321467	1313.780385097046	122.686085341013	605.618361462654	1236.343058182875	43.813304821771	634.224408825493	1438.553193280597	85.520577828739	627.333576231918	785.214518466261	38.885311140683	394.874297754754	854.667361781241	35.387194859243	310.661567279460	939.751162997564	95.561147799839	334.053446188456	1066.442894967677	41.277977173793	297.476850110758	1131.999838509404	1101.295434036262	134.930200135946	1377.738317218088	1112.414168542305	193.592309952387	948.539332387773	1117.665981721527	734.739571193722	916.389861111486	857.388040604582	747.783854382560	
74	58.938642857143	877.010870582824	1005.268701157643	463.895497953414	1096.214473983525	1425.748266764685	289.852455855152	1184.148910829244	1345.170114301633	455.358895535464	1095.475894273919	1429.215597819238	621.938985028524	1093.306317645868	1483.262833958824	442.299228126475	1095.741264204194	933.302750327142	591.900608562233	1093.234016250537	949.076374213007	316.701417986742	1166.246410253246	759.836088492096	566.662152142945	1115.550100774537	639.221895941690	638.118198348749	1205.238977378615	601.950760305905	559.722584594772	1235.452168974681	520.164793480539	576.910795250251	1094.965732462297	726.433360204400	340.542090576598	978.504070296914	634.965165888373	275.235861297609	1038.840319964429	539.048732001152	336.156300191852	1023.707534073604	471.529861457152	343.740037667177	988.821931520729	406.162993058407	334.219811620860	882.364069678898	306.704284220750	283.779425661226	918.418201404195	187.309763083789	350.456538429200	1221.108882982551	430.327381798068	586.218633157117	1165.793384048770	314.731222259246	644.231811401868	1239.282006149341	230.690472939530	593.738082776708	1149.596832706678	45.680082150567	559.504308339124	1312.278712218426	118.322163808767	602.349961053749	1234.232985994825	40.995374078987	631.399762160912	1436.718823993819	80.448672711721	625.043447504609	777.185987102905	38.783236628610	394.731980295901	846.745049200173	35.132010338551	310.614384292802	931.950091626302	95.388234093056	334.003118564897	1058.666914532728	41.113286039697	297.363766200759	1132.052775277164	1100.661062282873	136.175274613353	1376.482957925945	1120.464322062295	196.307448176415	944.221005184242	1119.309712554073	737.216390389886	908.084782521505	859.688423826833	748.562441294530	
75	58.949857142857	879.199361328066	1002.974968880594	466.991062904634	1095.326005334346	1424.293341949293	292.466745803318	1184.451534989248	1344.280576033362	457.643542540669	1095.834113147515	1427.801841504280	624.547678206132	1092.935329914574	1481.831292095404	444.878247197577	1098.484502597456	930.927329313421	594.060387907390	1095.189617501284	947.649923057990	319.087838575027	1167.978209198308	756.127222890740	569.379141627883	1114.128306290329	635.388152515295	638.577421971623	1204.724018615453	598.460491382454	561.273201169673	1232.755303792980	516.309411562651	576.777265935955	1096.046238086229	724.521372410402	341.884309861199	978.657569370992	633.622707371403	276.956442575749	1038.893322920376	537.199615763780	337.277661208578	1023.520540086976	468.933670694893	344.525066516738	986.923903749583	404.102236936593	335.128650863598	878.386972520712	306.770830344229	284.688587330475	912.273972463636	186.456000178539	350.741101464539	1218.918312165232	426.169514016417	585.643496248340	1163.061791230085	310.332973448088	642.408610137085	1236.504697468133	226.610753588042	591.691181079828	1145.598374935611	43.757288949661	556.511530767526	1308.912902826006	113.897913665332	598.927953285737	1229.783930574045	38.837913070428	628.909686488574	1432.817165965217	74.607170398566	622.617462320699	769.194826489342	39.087927516514	394.524468427520	838.862367565584	35.052937423132	310.537609316718	924.319977027818	95.240779138562	333.885533896857	1050.918909685908	40.885401070253	297.231371099077	1131.529326030593	1099.686564276957	137.728374310594	1374.627696699312	1127.149599627073	198.902430127301	940.499813335312	1120.745308585261	739.812878786087	901.024464081354	861.653208037688	749.463575492113	
76	58.961071428571	881.222400674974	1000.857496475348	470.175503379449	1094.540574760265	1422.853078695073	295.142095793901	1184.806425689294	1343.455023655276	460.055696846897	1096.256071891958	1426.504489280791	627.291214401055	1092.657478034722	1480.518753883798	447.566883115938	1101.139117469424	928.791027099855	596.373139311159	1097.055363301873	946.383769158794	321.626166118221	1170.104620463374	753.060098895978	572.162158892999	1113.341072471441	632.167983357869	638.939762162648	1204.898109854872	595.687260226766	562.752554820332	1230.830120366079	512.903503671535	576.469960693301	1097.600447041678	722.835596937722	343.390005994609	979.616652183572	632.126890690371	278.855521412419	1040.187859289918	535.324122158340	338.487725803823	1024.722019631633	466.113504084823	345.269074010893	986.084437884324	401.896777628246	336.078811109434	875.218369830937	307.080637626344	285.697336809684	906.635363146502	185.787629766182	351.025087411256	1217.120517445800	422.425197756348	584.920613954857	1160.471790684719	306.676087991220	640.872823423685	1233.077167650692	222.854316301381	589.649911503858	1139.752452327293	42.533818668633	554.048099339074	1304.094303357374	109.701325552884	595.606833234980	1223.577693833889	37.329376522756	626.895042740746	1427.350200404443	68.560124498916	620.237279986351	761.306787810651	40.069217956227	394.252794290028	831.056874869044	35.323380616544	310.432994070687	916.952492016775	95.177089675636	333.689036546345	1043.186545128479	40.569147589884	297.092291045892	1130.377173150877	1098.400512698172	139.634767060499	1372.247258419812	1132.406848511015	201.376276585137	937.512958336589	1121.903873436550	742.480493145521	895.212914668357	863.217425017506	750.544278710878	
